<svg width="47" height="47" viewBox="0 0 47 47" fill="none" xmlns="http://www.w3.org/2000/svg">
<rect x="0.767822" y="0.795532" width="45.67" height="45.6684" rx="17" fill="#53B175"/>
<path d="M32.1028 23.6298C32.1028 24.0056 31.9587 24.3689 31.6892 24.632C31.426 24.9013 31.0626 25.0516 30.6866 25.0516H25.0221V30.7141C25.0221 31.09 24.8717 31.4533 24.6022 31.7164C24.3391 31.9794 23.9819 32.1298 23.6059 32.1298C23.2299 32.1298 22.8665 31.9794 22.6033 31.7164C22.3339 31.4533 22.1835 31.09 22.1835 30.7141V25.0516H16.5189C16.143 25.0516 15.7795 24.9013 15.5163 24.632C15.2532 24.3689 15.1028 24.0056 15.1028 23.6298C15.1028 23.2539 15.2532 22.8969 15.5163 22.6276C15.7795 22.3645 16.143 22.2141 16.5189 22.2141H22.1835V16.5516C22.1835 16.1758 22.3339 15.8125 22.6033 15.5494C22.8665 15.2801 23.2299 15.1298 23.6059 15.1298C23.9819 15.1298 24.3391 15.2801 24.6022 15.5494C24.8717 15.8125 25.0221 16.1758 25.0221 16.5516V22.2141H30.6866C31.0626 22.2141 31.426 22.3645 31.6892 22.6276C31.9587 22.8969 32.1028 23.2539 32.1028 23.6298Z" fill="white"/>
</svg>
