<svg width="16" height="19" viewBox="0 0 16 19" fill="none" xmlns="http://www.w3.org/2000/svg">
<path fill-rule="evenodd" clip-rule="evenodd" d="M11.0204 1.30758C10.1053 0.912405 9.12029 0.704437 8.12349 0.695941C7.11999 0.680402 6.12382 0.869224 5.19562 1.25092C4.26741 1.63261 3.42658 2.19919 2.7243 2.91617C1.29841 4.36017 0.491346 6.30298 0.474387 8.33226C0.457429 10.3615 1.23192 12.3176 2.63347 13.7852L7.2354 18.5486C7.32802 18.6458 7.4391 18.7235 7.56214 18.7772C7.68517 18.831 7.81769 18.8596 7.95193 18.8615C8.08598 18.8645 8.21914 18.8391 8.34265 18.7869C8.46616 18.7347 8.5772 18.6569 8.66846 18.5587L13.3511 13.8659C14.7784 12.4233 15.5873 10.4812 15.6061 8.45189C15.625 6.4226 14.8523 4.46584 13.452 2.99691C12.7624 2.27716 11.9356 1.70276 11.0204 1.30758ZM7.96174 11.0056C9.31078 11.0056 10.4044 9.91197 10.4044 8.56293C10.4044 7.21389 9.31078 6.12028 7.96174 6.12028C6.6127 6.12028 5.51909 7.21389 5.51909 8.56293C5.51909 9.91197 6.6127 11.0056 7.96174 11.0056Z" fill="#4C4F4D"/>
</svg>
