<svg width="19" height="19" viewBox="0 0 19 19" fill="none" xmlns="http://www.w3.org/2000/svg">
<path d="M8.75954 14.5714C9.54747 14.5714 10.3277 14.4162 11.0556 14.1147C11.7836 13.8132 12.445 13.3712 13.0022 12.8141C13.5593 12.2569 14.0013 11.5955 14.3028 10.8675C14.6043 10.1396 14.7595 9.35936 14.7595 8.57143C14.7595 7.78349 14.6043 7.00328 14.3028 6.27533C14.0013 5.54737 13.5593 4.88594 13.0022 4.32879C12.445 3.77163 11.7836 3.32968 11.0556 3.02815C10.3277 2.72662 9.54747 2.57143 8.75954 2.57143C7.16824 2.57143 5.64211 3.20357 4.5169 4.32879C3.39168 5.454 2.75954 6.98013 2.75954 8.57143C2.75954 10.1627 3.39168 11.6888 4.5169 12.8141C5.64211 13.9393 7.16824 14.5714 8.75954 14.5714ZM15.0795 13.4774L18.6595 17.0574C18.755 17.1497 18.8311 17.2601 18.8834 17.3822C18.9357 17.5042 18.9632 17.6355 18.9643 17.7682C18.9653 17.901 18.9399 18.0327 18.8896 18.1555C18.8392 18.2784 18.7649 18.39 18.6709 18.4838C18.577 18.5776 18.4653 18.6518 18.3423 18.702C18.2194 18.7522 18.0877 18.7774 17.9549 18.7762C17.8221 18.7749 17.6909 18.7472 17.569 18.6948C17.447 18.6423 17.3367 18.566 17.2445 18.4704L13.6645 14.8904C12.057 16.1383 10.0343 16.7266 8.00829 16.5356C5.98225 16.3446 4.10514 15.3887 2.75909 13.8625C1.41303 12.3362 0.699221 10.3544 0.762962 8.32035C0.826703 6.28633 1.66321 4.35305 3.10218 2.91407C4.54116 1.4751 6.47444 0.638593 8.50846 0.574852C10.5425 0.511111 12.5243 1.22492 14.0506 2.57098C15.5768 3.91703 16.5328 5.79414 16.7237 7.82018C16.9147 9.84622 16.3264 11.8689 15.0785 13.4764L15.0795 13.4774Z" fill="#181B19"/>
</svg>
