<svg width="16" height="19" viewBox="0 0 16 19" fill="none" xmlns="http://www.w3.org/2000/svg">
<path fill-rule="evenodd" clip-rule="evenodd" d="M10.9677 1.30758C10.0526 0.912405 9.06756 0.704437 8.07076 0.695941C7.06726 0.680402 6.07109 0.869224 5.14288 1.25092C4.21468 1.63261 3.37385 2.19919 2.67157 2.91617C1.24568 4.36017 0.438611 6.30298 0.421653 8.33226C0.404694 10.3615 1.17918 12.3176 2.58074 13.7852L7.18267 18.5486C7.27529 18.6458 7.38637 18.7235 7.5094 18.7772C7.63244 18.831 7.76496 18.8596 7.8992 18.8615C8.03324 18.8645 8.16641 18.8391 8.28992 18.7869C8.41343 18.7347 8.52447 18.6569 8.61572 18.5587L13.2984 13.8659C14.7256 12.4233 15.5345 10.4812 15.5534 8.45189C15.5722 6.4226 14.7995 4.46584 13.3993 2.99691C12.7096 2.27716 11.8829 1.70276 10.9677 1.30758ZM7.90901 11.0056C9.25805 11.0056 10.3517 9.91197 10.3517 8.56293C10.3517 7.21389 9.25805 6.12028 7.90901 6.12028C6.55997 6.12028 5.46635 7.21389 5.46635 8.56293C5.46635 9.91197 6.55997 11.0056 7.90901 11.0056Z" fill="#4C4F4D"/>
</svg>
