<svg width="27" height="32" viewBox="0 0 27 32" fill="none" xmlns="http://www.w3.org/2000/svg">
<path fill-rule="evenodd" clip-rule="evenodd" d="M18.4746 2.68899C18.6068 1.5079 17.7695 0.441392 16.5884 0.30918C15.4073 0.168154 14.3408 1.01431 14.2086 2.1954C14.0499 3.54397 14.2703 5.15695 14.5523 6.81401C15.3368 7.05199 16.0948 7.39574 16.7999 7.80119C17.558 6.01192 18.2983 4.24028 18.4746 2.68899ZM26.7687 7.8717C26.3016 6.77875 25.0323 6.28516 23.9394 6.75231C22.5027 7.37811 21.0131 8.60328 19.5147 9.8637C20.0788 10.419 20.6076 11.0448 21.0572 11.7235C22.7583 11.5119 24.3889 11.2563 25.6493 10.7099C26.7423 10.2251 27.2447 8.95584 26.7687 7.8717ZM23.1461 2.10726C22.1942 1.40213 20.8456 1.59604 20.1405 2.54797C19.0652 3.99349 18.3424 6.15295 17.558 8.25952C17.8224 8.43581 18.0692 8.61209 18.3072 8.79719C18.4834 8.93821 18.6685 9.08805 18.8536 9.23789C20.6517 7.88052 22.5203 6.5584 23.5956 5.11288C24.3008 4.16095 24.098 2.81239 23.1461 2.10726Z" fill="#53B175"/>
<path d="M19.0563 19.3653C18.3952 20.0793 17.6901 20.7403 16.9409 21.3838C15.892 22.2916 14.8255 23.173 13.7413 24.0192C12.5779 23.3052 11.7405 22.9439 11.5995 23.129C11.4761 23.2964 11.9609 23.9134 12.8335 24.7155C9.90719 26.8926 6.81343 28.8141 3.4905 30.3918C2.97047 30.6386 2.42399 30.8149 1.88633 31.0088C1.7453 31.0617 1.59546 31.0617 1.53376 31.0705C0.687606 31.1674 0.431996 30.9383 0.467253 30.1626C0.573022 27.7476 1.32222 25.4823 2.09787 23.2259C2.30941 22.6089 2.52976 21.9919 2.75893 21.3749C3.93121 22.0889 4.76855 22.4591 4.90957 22.274C5.05941 22.0713 4.35428 21.2604 3.17319 20.2467C4.01935 18.0608 4.96246 15.9102 6.07304 13.8477C8.2942 15.4959 10.2686 16.5801 10.4889 16.2804C10.7093 15.9807 9.07866 14.3853 6.83106 12.7195L6.7341 12.6489C7.12192 11.9879 7.52737 11.3268 7.95926 10.6834C8.49693 9.8725 9.15799 9.13211 9.81023 8.40935C10.6828 7.44861 11.811 7.12249 13.0715 7.40454C17.1083 8.30358 19.9112 10.6217 21.2333 14.5969C21.4978 15.4078 21.2598 16.201 20.8455 16.9326C20.5635 17.4262 20.255 17.8934 19.9112 18.3341C17.7782 16.774 15.9272 15.7692 15.7157 16.0512C15.513 16.3333 16.9849 17.7876 19.0563 19.3653Z" fill="#F3603F"/>
</svg>
