<svg width="29" height="19" viewBox="0 0 29 19" fill="none" xmlns="http://www.w3.org/2000/svg">
<path d="M18.4699 14.0005C19.2578 14.0005 20.038 13.8453 20.766 13.5438C21.4939 13.2423 22.1554 12.8003 22.7125 12.2431C23.2697 11.686 23.7116 11.0246 24.0131 10.2966C24.3147 9.56865 24.4699 8.78843 24.4699 8.0005C24.4699 7.21257 24.3147 6.43236 24.0131 5.7044C23.7116 4.97645 23.2697 4.31501 22.7125 3.75786C22.1554 3.20071 21.4939 2.75875 20.766 2.45723C20.038 2.1557 19.2578 2.0005 18.4699 2.0005C16.8786 2.0005 15.3524 2.63264 14.2272 3.75786C13.102 4.88308 12.4699 6.4092 12.4699 8.0005C12.4699 9.5918 13.102 11.1179 14.2272 12.2431C15.3524 13.3684 16.8786 14.0005 18.4699 14.0005ZM24.7899 12.9065L28.3699 16.4865C28.4653 16.5788 28.5414 16.6892 28.5937 16.8113C28.646 16.9333 28.6735 17.0645 28.6746 17.1973C28.6757 17.3301 28.6503 17.4618 28.5999 17.5846C28.5495 17.7075 28.4752 17.8191 28.3812 17.9129C28.2873 18.0067 28.1756 18.0809 28.0526 18.1311C27.9297 18.1813 27.798 18.2065 27.6652 18.2052C27.5325 18.204 27.4013 18.1763 27.2793 18.1238C27.1573 18.0713 27.047 17.9951 26.9549 17.8995L23.3749 14.3195C21.7673 15.5674 19.7447 16.1557 17.7186 15.9647C15.6926 15.7737 13.8155 14.8178 12.4694 13.2916C11.1234 11.7653 10.4095 9.78345 10.4733 7.74943C10.537 5.7154 11.3735 3.78213 12.8125 2.34315C14.2515 0.904173 16.1848 0.0676701 18.2188 0.00392902C20.2528 -0.0598121 22.2347 0.654 23.7609 2.00005C25.2872 3.34611 26.2431 5.22322 26.4341 7.24926C26.625 9.2753 26.0367 11.298 24.7889 12.9055L24.7899 12.9065Z" fill="#181725"/>
<rect x="0.325317" width="8.85499" height="2.39923" rx="1.19961" fill="#181725"/>
<rect x="0.325317" y="7.4382" width="6.46414" height="2.39923" rx="1.19961" fill="#181725"/>
<rect x="0.19873" y="14.763" width="8.85499" height="2.39923" rx="1.19961" fill="#181725"/>
</svg>
