<svg width="17" height="17" viewBox="0 0 17 17" fill="none" xmlns="http://www.w3.org/2000/svg">
<path d="M14.875 17H10.625V10.625H12.686L13.228 8.5H10.628V5.95C10.628 5.61237 10.7619 5.28852 11.0004 5.0495C11.2388 4.81048 11.5624 4.67579 11.9 4.675H13.175V2.55H11.9C10.9987 2.55132 10.1346 2.90996 9.4973 3.5473C8.85996 4.18464 8.50132 5.04867 8.5 5.95V8.5H6.375V10.625H8.5V17H2.125C1.56141 17 1.02091 16.7761 0.622398 16.3776C0.223883 15.9791 0 15.4386 0 14.875L0 2.125C0 1.56141 0.223883 1.02091 0.622398 0.622398C1.02091 0.223883 1.56141 0 2.125 0L14.875 0C15.4386 0 15.9791 0.223883 16.3776 0.622398C16.7761 1.02091 17 1.56141 17 2.125V14.875C17 15.4386 16.7761 15.9791 16.3776 16.3776C15.9791 16.7761 15.4386 17 14.875 17ZM11.475 16.15H14.875C15.0424 16.15 15.2082 16.117 15.3629 16.0529C15.5176 15.9889 15.6582 15.895 15.7766 15.7766C15.895 15.6582 15.9889 15.5176 16.0529 15.3629C16.117 15.2082 16.15 15.0424 16.15 14.875V2.125C16.15 1.78685 16.0157 1.46255 15.7766 1.22344C15.5375 0.98433 15.2132 0.85 14.875 0.85H2.125C1.78685 0.85 1.46255 0.98433 1.22344 1.22344C0.98433 1.46255 0.85 1.78685 0.85 2.125V14.875C0.85 15.2132 0.98433 15.5375 1.22344 15.7766C1.46255 16.0157 1.78685 16.15 2.125 16.15H7.65V11.475H5.525V7.65H7.65V5.95C7.65132 4.82324 8.09951 3.743 8.89626 2.94626C9.693 2.14951 10.7732 1.70132 11.9 1.7H14.025V5.525H11.9C11.7873 5.525 11.6792 5.56978 11.5995 5.64948C11.5198 5.72918 11.475 5.83728 11.475 5.95V7.65H14.322L13.345 11.475H11.475V16.15Z" fill="#CEAB8C"/>
</svg>
