<svg width="18" height="17" viewBox="0 0 18 17" fill="none" xmlns="http://www.w3.org/2000/svg">
<path d="M14.964 17H2.21399C1.6504 17 1.1099 16.7761 0.711387 16.3776C0.312873 15.9791 0.0889893 15.4386 0.0889893 14.875L0.0889893 2.125C0.0889893 1.56141 0.312873 1.02091 0.711387 0.622398C1.1099 0.223883 1.6504 0 2.21399 0L14.964 0C15.5276 0 16.0681 0.223883 16.4666 0.622398C16.8651 1.02091 17.089 1.56141 17.089 2.125V14.875C17.089 15.4386 16.8651 15.9791 16.4666 16.3776C16.0681 16.7761 15.5276 17 14.964 17ZM2.21399 0.85C1.87584 0.85 1.55154 0.98433 1.31243 1.22344C1.07332 1.46255 0.938989 1.78685 0.938989 2.125V14.875C0.938989 15.2132 1.07332 15.5375 1.31243 15.7766C1.55154 16.0157 1.87584 16.15 2.21399 16.15H14.964C15.1314 16.15 15.2972 16.117 15.4519 16.0529C15.6066 15.9889 15.7472 15.895 15.8656 15.7766C15.9839 15.6582 16.0779 15.5176 16.1419 15.3629C16.206 15.2082 16.239 15.0424 16.239 14.875V2.125C16.239 1.78685 16.1047 1.46255 15.8656 1.22344C15.6264 0.98433 15.3021 0.85 14.964 0.85H2.21399Z" fill="#CEAB8C"/>
<path d="M8.5 13C7.60999 13 6.73995 12.7361 5.99993 12.2416C5.25991 11.7471 4.68314 11.0443 4.34255 10.2221C4.00195 9.39981 3.91283 8.49501 4.08647 7.6221C4.2601 6.74918 4.68869 5.94736 5.31802 5.31802C5.94736 4.68869 6.74918 4.2601 7.6221 4.08647C8.49501 3.91283 9.39981 4.00195 10.2221 4.34255C11.0443 4.68314 11.7471 5.25991 12.2416 5.99993C12.7361 6.73995 13 7.60999 13 8.5C13 9.69348 12.5259 10.8381 11.682 11.682C10.8381 12.5259 9.69348 13 8.5 13ZM8.5 4.81818C7.77181 4.81818 7.05996 5.03412 6.45449 5.43868C5.84902 5.84325 5.37711 6.41827 5.09844 7.09103C4.81978 7.76379 4.74687 8.50408 4.88893 9.21829C5.031 9.93249 5.38165 10.5885 5.89656 11.1034C6.41147 11.6184 7.06751 11.969 7.78171 12.1111C8.49592 12.2531 9.23621 12.1802 9.90897 11.9016C10.5817 11.6229 11.1568 11.151 11.5613 10.5455C11.9659 9.94004 12.1818 9.2282 12.1818 8.5C12.1818 7.52353 11.7939 6.58704 11.1034 5.89656C10.413 5.20609 9.47648 4.81818 8.5 4.81818Z" fill="#CEAB8C"/>
<path d="M12.839 2.55005H14.539V3.40005H12.839V2.55005Z" fill="#CEAB8C"/>
</svg>
