<svg width="17" height="17" viewBox="0 0 17 17" fill="none" xmlns="http://www.w3.org/2000/svg">
<path d="M10.121 6.96001H9.38802C9.38802 6.14901 9.09902 5.86001 8.28802 5.86001V5.127C8.53682 5.09247 8.79024 5.11609 9.02838 5.19599C9.26652 5.27589 9.48289 5.40992 9.66051 5.58753C9.83812 5.76515 9.97214 5.98152 10.052 6.21966C10.132 6.45779 10.1556 6.71121 10.121 6.96001Z" fill="#CEAB8C"/>
<path d="M11.587 6.9609H10.854C10.8903 6.61515 10.8489 6.26565 10.7329 5.93794C10.6168 5.61023 10.429 5.31258 10.1832 5.06675C9.93735 4.82092 9.63971 4.63311 9.312 4.51705C8.98429 4.40098 8.63477 4.35959 8.28902 4.3959V3.6629C8.73124 3.62694 9.176 3.68756 9.59245 3.84058C10.0089 3.9936 10.3871 4.23535 10.7008 4.54908C11.0146 4.86281 11.2563 5.24101 11.4093 5.65747C11.5624 6.07393 11.623 6.51868 11.587 6.9609Z" fill="#CEAB8C"/>
<path d="M13.052 6.96099H12.319C12.35 6.42354 12.2669 5.88562 12.0752 5.38254C11.8836 4.87947 11.5877 4.42262 11.2071 4.04195C10.8264 3.66129 10.3695 3.36543 9.86646 3.17379C9.36338 2.98215 8.82548 2.89906 8.28802 2.92998V2.19698C8.92312 2.16024 9.55881 2.25826 10.1533 2.48462C10.7479 2.71099 11.2878 3.06057 11.7376 3.5104C12.1874 3.96024 12.537 4.50015 12.7634 5.09467C12.9897 5.6892 13.0878 6.32489 13.051 6.95999L13.052 6.96099Z" fill="#CEAB8C"/>
<path d="M4.62503 17.0001V14.4721L3.84203 14.3801C2.92863 14.2645 2.08305 13.8374 1.44798 13.1708C0.812914 12.5042 0.427235 11.639 0.356027 10.7211C0.273027 9.60006 0.228027 8.45806 0.228027 7.32706C0.228027 6.19606 0.273027 5.05506 0.356027 3.93306C0.435526 3.00651 0.832011 2.13568 1.47866 1.46736C2.12532 0.799026 2.9826 0.374054 3.90603 0.26406C6.81441 -0.08802 9.75464 -0.08802 12.663 0.26406C13.5872 0.373197 14.4454 0.797792 15.0928 1.4662C15.7403 2.13461 16.1374 3.0059 16.217 3.93306C16.304 5.05506 16.345 6.19606 16.345 7.32706C16.345 8.45806 16.299 9.60306 16.217 10.7211C16.1462 11.6375 15.762 12.5016 15.1289 13.168C14.4959 13.8343 13.6526 14.2624 12.741 14.3801C11.4323 14.5418 10.1156 14.6319 8.79703 14.6501L4.62503 17.0001ZM8.28903 0.73206C6.8544 0.732351 5.42111 0.819511 3.99703 0.99306C3.2411 1.08208 2.53902 1.42913 2.00926 1.97566C1.47949 2.52219 1.15446 3.23473 1.08903 3.99306C1.00203 5.09306 0.961027 6.21906 0.961027 7.32706C0.961027 8.43506 1.00203 9.56206 1.08903 10.6661C1.14705 11.4155 1.46153 12.1222 1.97953 12.6669C2.49753 13.2117 3.18741 13.5614 3.93303 13.6571C4.29636 13.7031 4.66136 13.7427 5.02803 13.7761L5.36203 13.8081V15.7501L8.60503 13.9231H8.69703C10.02 13.9082 11.341 13.8194 12.654 13.6571C13.3977 13.5607 14.0855 13.2113 14.6018 12.6675C15.1181 12.1237 15.4314 11.4187 15.489 10.6711C15.576 9.57106 15.617 8.44506 15.617 7.33206C15.617 6.21906 15.576 5.09706 15.489 3.99306C15.4234 3.23397 15.0976 2.52084 14.5669 1.97421C14.0361 1.42758 13.3329 1.081 12.576 0.99306C11.1536 0.819928 9.72198 0.73277 8.28903 0.73206Z" fill="#CEAB8C"/>
<path d="M9.72704 12.0901H9.38803C7.73649 12.0885 6.15304 11.4317 4.98522 10.2639C3.8174 9.09607 3.16062 7.51262 3.15904 5.86107V5.52208C3.15819 5.23269 3.21486 4.94603 3.32576 4.67874C3.43666 4.41145 3.59957 4.16886 3.80503 3.96508L4.10504 3.66507C4.34012 3.43159 4.65771 3.3001 4.98904 3.29908C5.15327 3.29861 5.31595 3.33071 5.46769 3.39354C5.61943 3.45636 5.7572 3.54865 5.87303 3.66507L6.82104 4.61307C6.93728 4.72904 7.02945 4.86684 7.09226 5.01854C7.15508 5.17025 7.18729 5.33288 7.18704 5.49708C7.18601 5.8284 7.05452 6.14599 6.82104 6.38108L6.73403 6.46808C6.55499 6.6483 6.4545 6.89203 6.4545 7.14608C6.4545 7.40012 6.55499 7.64385 6.73403 7.82408L7.42104 8.51108C7.60595 8.68257 7.84884 8.77787 8.10104 8.77787C8.35324 8.77787 8.59612 8.68257 8.78104 8.51108L8.86804 8.42408C8.98417 8.30833 9.12208 8.21675 9.27381 8.15461C9.42554 8.09248 9.58808 8.06103 9.75204 8.06208C10.0834 8.063 10.401 8.1945 10.636 8.42808L11.584 9.37607C11.7001 9.49215 11.7923 9.62997 11.8551 9.78164C11.9179 9.93332 11.9503 10.0959 11.9503 10.2601C11.9503 10.4243 11.9179 10.5868 11.8551 10.7385C11.7923 10.8902 11.7001 11.028 11.584 11.1441L11.284 11.4441C11.0802 11.6495 10.8376 11.8124 10.5703 11.9233C10.3031 12.0342 10.0164 12.0909 9.72704 12.0901ZM4.99204 4.02907C4.85494 4.02939 4.72348 4.08363 4.62604 4.18007L4.32604 4.48008C4.18881 4.61618 4.08003 4.77822 4.00604 4.95677C3.93204 5.13532 3.89431 5.32681 3.89504 5.52008V5.85907C3.89504 7.31777 4.47449 8.71672 5.50594 9.74817C6.5374 10.7796 7.93635 11.3591 9.39504 11.3591H9.73403C9.9264 11.3593 10.1169 11.3215 10.2946 11.2477C10.4722 11.1738 10.6335 11.0656 10.769 10.9291L11.069 10.6291C11.1658 10.5317 11.2201 10.3999 11.2201 10.2626C11.2201 10.1253 11.1658 9.9935 11.069 9.89608L10.126 8.94808C10.0267 8.855 9.89567 8.8032 9.75954 8.8032C9.62341 8.8032 9.49237 8.855 9.39304 8.94808L9.32004 9.02108C9.16336 9.18118 8.97649 9.30864 8.77024 9.39609C8.564 9.48353 8.34247 9.52922 8.11846 9.53052C7.89444 9.53182 7.6724 9.48871 7.46515 9.40367C7.2579 9.31863 7.06957 9.19335 6.91104 9.03508L6.21903 8.34308C5.9018 8.0243 5.72382 7.59281 5.72404 7.14308C5.72289 6.92023 5.76605 6.69938 5.85103 6.49337C5.93601 6.28736 6.0611 6.1003 6.21903 5.94307L6.30604 5.85608C6.40239 5.75858 6.45661 5.62715 6.45703 5.49008C6.45714 5.42214 6.44387 5.35485 6.41796 5.29205C6.39205 5.22925 6.35402 5.17217 6.30604 5.12407L5.35803 4.17608C5.31007 4.12792 5.25302 4.08977 5.19019 4.06385C5.12736 4.03793 5.06 4.02474 4.99204 4.02508V4.02907Z" fill="#CEAB8C"/>
</svg>
