<svg width="22" height="13" viewBox="0 0 22 13" fill="none" xmlns="http://www.w3.org/2000/svg">
<path d="M20.094 12.1761H17.507C17.3102 12.176 17.1161 12.131 16.9395 12.0443C16.7628 11.9576 16.6084 11.8317 16.488 11.6761L13.965 8.46209C13.9098 8.39132 13.834 8.33952 13.748 8.31391C13.662 8.2883 13.5702 8.29015 13.4853 8.31921C13.4005 8.34827 13.3268 8.40309 13.2746 8.47603C13.2223 8.54896 13.1942 8.63638 13.194 8.72609V10.0201C13.1321 10.6471 12.8261 11.2246 12.3421 11.628C11.8581 12.0314 11.2349 12.2282 10.607 12.1761C10.0487 12.1812 9.50071 12.0261 9.02797 11.7291C5.36704 9.36922 2.5038 5.95913 0.812971 1.94509C0.720674 1.7481 0.679532 1.53101 0.693347 1.31391C0.707163 1.09681 0.77549 0.886688 0.892013 0.702983C1.00854 0.519278 1.16949 0.367915 1.36 0.262887C1.55051 0.157859 1.76443 0.102556 1.98197 0.102091H4.56997C4.82324 0.101582 5.07108 0.175406 5.28279 0.314412C5.4945 0.453418 5.66076 0.651494 5.76097 0.884091L6.05197 1.56309C6.49182 2.58319 7.08241 3.53144 7.80397 4.37609C7.81565 4.38869 7.82993 4.39861 7.84581 4.40517C7.86169 4.41173 7.8788 4.41477 7.89597 4.41409C7.91168 4.41547 7.9275 4.41358 7.94244 4.40854C7.95738 4.4035 7.9711 4.39541 7.98276 4.38479C7.99441 4.37417 8.00374 4.36125 8.01014 4.34684C8.01655 4.33244 8.01989 4.31686 8.01997 4.30109V2.61409C7.7336 2.51137 7.49258 2.31103 7.33924 2.04827C7.18591 1.7855 7.13006 1.47711 7.1815 1.17726C7.23295 0.877402 7.38841 0.605264 7.62057 0.40864C7.85272 0.212015 8.14674 0.103478 8.45097 0.102091H11.901C12.2442 0.102091 12.5733 0.238423 12.816 0.481095C13.0586 0.723767 13.195 1.0529 13.195 1.39609V4.41409C13.1942 4.50853 13.2246 4.6006 13.2813 4.67614C13.338 4.75167 13.4179 4.80649 13.5088 4.83217C13.5997 4.85784 13.6965 4.85296 13.7843 4.81825C13.8722 4.78355 13.9462 4.72095 13.995 4.64009L16.404 0.721091C16.5187 0.530944 16.6809 0.373846 16.8746 0.265167C17.0683 0.156489 17.2869 0.0999533 17.509 0.101091H20.096C20.3299 0.101969 20.5592 0.166242 20.7595 0.287073C20.9598 0.407904 21.1236 0.580773 21.2335 0.78729C21.3434 0.993806 21.3952 1.22625 21.3835 1.45988C21.3718 1.69351 21.297 1.9196 21.167 2.11409L18.45 5.88609C18.3964 5.95976 18.3675 6.0485 18.3675 6.13959C18.3675 6.23068 18.3964 6.31942 18.45 6.39309L21.15 10.1291C21.2886 10.3224 21.3712 10.5502 21.3888 10.7875C21.4064 11.0247 21.3582 11.2622 21.2496 11.4739C21.141 11.6856 20.9761 11.8632 20.7731 11.9872C20.5701 12.1113 20.3369 12.177 20.099 12.1771L20.094 12.1761ZM13.626 7.43309C13.8227 7.43314 14.0168 7.47822 14.1935 7.56489C14.3701 7.65156 14.5245 7.77751 14.645 7.93309L17.168 11.1511C17.2082 11.203 17.2597 11.245 17.3186 11.2739C17.3776 11.3029 17.4423 11.318 17.508 11.3181H20.095C20.1747 11.3184 20.2529 11.2966 20.321 11.2552C20.3891 11.2137 20.4443 11.1542 20.4806 11.0832C20.5168 11.0122 20.5327 10.9326 20.5264 10.8531C20.5201 10.7736 20.4919 10.6975 20.445 10.6331L17.745 6.89709C17.5856 6.67666 17.4998 6.41159 17.4998 6.13959C17.4998 5.86759 17.5856 5.60252 17.745 5.38209L20.456 1.62509C20.4987 1.55746 20.5212 1.47907 20.521 1.39909C20.521 1.28478 20.4756 1.17516 20.3947 1.09433C20.3139 1.0135 20.2043 0.968091 20.09 0.968091H17.507C17.4339 0.967561 17.3618 0.98564 17.2976 1.02063C17.2334 1.05562 17.1792 1.10636 17.14 1.16809L14.73 5.08709C14.5833 5.32863 14.3616 5.5155 14.0987 5.61917C13.8358 5.72283 13.5462 5.73759 13.2741 5.66119C13.002 5.58478 12.7625 5.42141 12.592 5.19604C12.4215 4.97067 12.3295 4.69568 12.33 4.41309V1.39509C12.33 1.28078 12.2846 1.17116 12.2037 1.09033C12.1229 1.0095 12.0133 0.964091 11.899 0.964091H8.45097C8.33653 0.964091 8.22678 1.00955 8.14585 1.09047C8.06493 1.1714 8.01947 1.28115 8.01947 1.39559C8.01947 1.51003 8.06493 1.61979 8.14585 1.70071C8.22678 1.78163 8.33653 1.82709 8.45097 1.82709H8.88197V4.30109C8.87975 4.50101 8.8168 4.69553 8.70148 4.85885C8.58615 5.02217 8.42391 5.14658 8.23625 5.21557C8.0486 5.28455 7.84441 5.29486 7.65076 5.24513C7.45711 5.19539 7.28316 5.08797 7.15197 4.93709C6.37488 4.02722 5.73879 3.00583 5.26497 1.90709L4.96497 1.22809C4.93191 1.14944 4.87626 1.08236 4.80505 1.03537C4.73384 0.988369 4.65029 0.963564 4.56497 0.964091H1.98197C1.90948 0.964385 1.83823 0.982961 1.77482 1.0181C1.71141 1.05324 1.65788 1.1038 1.6192 1.16511C1.58052 1.22643 1.55793 1.29651 1.55352 1.36887C1.54911 1.44123 1.56302 1.51353 1.59397 1.57909C3.67997 6.01509 5.97097 8.74809 9.49397 11.0071C9.82814 11.2117 10.2132 11.3181 10.605 11.3141C11.554 11.3141 12.33 10.7321 12.33 10.0201V8.72609C12.33 8.3829 12.4663 8.05377 12.709 7.81109C12.9516 7.56842 13.2808 7.43209 13.624 7.43209L13.626 7.43309Z" fill="#CEAB8C"/>
</svg>
