<svg width="18" height="17" viewBox="0 0 18 17" fill="none" xmlns="http://www.w3.org/2000/svg">
<path d="M0.0300293 17L1.01003 12.181C0.435688 11.0186 0.139879 9.73851 0.146029 8.442C0.146029 6.77233 0.641144 5.14016 1.56876 3.75188C2.49638 2.3636 3.81484 1.28157 5.35742 0.642613C6.89999 0.00365782 8.59739 -0.163522 10.235 0.162214C11.8726 0.487951 13.3768 1.29197 14.5574 2.47261C15.7381 3.65324 16.5421 5.15746 16.8678 6.79505C17.1936 8.43264 17.0264 10.13 16.3874 11.6726C15.7485 13.2152 14.6664 14.5337 13.2782 15.4613C11.8899 16.3889 10.2577 16.884 8.58803 16.884C7.29281 16.8878 6.01446 16.5903 4.85403 16.015L0.0300293 17ZM4.97003 15.171L5.09603 15.236C6.17558 15.7941 7.37377 16.0836 8.58903 16.08C10.0996 16.0798 11.5763 15.6317 12.8322 14.7923C14.0881 13.9529 15.067 12.7599 15.6449 11.3642C16.2229 9.96857 16.374 8.43285 16.0791 6.95129C15.7843 5.46973 15.0568 4.10886 13.9886 3.04077C12.9203 1.97268 11.5594 1.24533 10.0778 0.950693C8.59616 0.65606 7.06047 0.807376 5.66486 1.38551C4.26926 1.96364 3.07643 2.94262 2.2372 4.19866C1.39796 5.4547 0.950029 6.93139 0.950029 8.442C0.946449 9.65726 1.23597 10.8555 1.79403 11.935L1.85903 12.061L1.05903 15.971L4.97003 15.171Z" fill="#CEAB8C"/>
<path d="M10.97 13.2661H10.597C8.78616 13.264 7.04999 12.544 5.76913 11.2638C4.48826 9.98373 3.76721 8.24798 3.76404 6.4371V6.0651C3.76445 5.74901 3.82729 5.43611 3.94896 5.14438C4.07063 4.85264 4.24873 4.58781 4.47304 4.3651L4.80504 4.0331C5.06639 3.78369 5.41377 3.64453 5.77504 3.64453C6.1363 3.64453 6.48368 3.78369 6.74503 4.0331L7.78503 5.0681C7.91253 5.19531 8.01353 5.34654 8.08219 5.51304C8.15085 5.67954 8.18581 5.858 8.18504 6.0381C8.1844 6.40145 8.0407 6.74992 7.78503 7.0081L7.68504 7.1081C7.58745 7.20583 7.5101 7.32185 7.45742 7.44952C7.40474 7.57718 7.37776 7.71399 7.37804 7.8521C7.37922 8.13068 7.48941 8.39774 7.68504 8.5961L8.43903 9.3501C8.64161 9.53919 8.90842 9.64436 9.18554 9.64436C9.46266 9.64436 9.72946 9.53919 9.93204 9.3501L10.032 9.2501C10.2935 9.00091 10.6408 8.86191 11.002 8.86191C11.3632 8.86191 11.7106 9.00091 11.972 9.2501L13.012 10.2951C13.2692 10.5524 13.4137 10.9013 13.4137 11.2651C13.4137 11.6289 13.2692 11.9778 13.012 12.2351L12.68 12.5671C12.4563 12.7925 12.19 12.9712 11.8966 13.0929C11.6032 13.2146 11.2886 13.2769 10.971 13.2761L10.97 13.2661ZM5.77003 4.4221C5.62001 4.42244 5.47621 4.48211 5.37003 4.5881L5.03804 4.9201C4.88831 5.06894 4.76951 5.24596 4.6885 5.44093C4.60749 5.6359 4.56587 5.84497 4.56604 6.0561V6.4371C4.56736 8.03595 5.20309 9.56894 6.33365 10.6995C7.46421 11.8301 8.99719 12.4658 10.596 12.4671H10.968C11.1792 12.4673 11.3882 12.4256 11.5832 12.3446C11.7782 12.2636 11.9552 12.1448 12.104 11.9951L12.436 11.6631C12.5416 11.5567 12.6008 11.4129 12.6008 11.2631C12.6008 11.1133 12.5416 10.9695 12.436 10.8631L11.401 9.8231C11.2928 9.72106 11.1498 9.66423 11.001 9.66423C10.8523 9.66423 10.7092 9.72106 10.601 9.8231L10.501 9.9231C10.1524 10.2714 9.67982 10.4671 9.18703 10.4671C8.69425 10.4671 8.22163 10.2714 7.87304 9.9231L7.11903 9.1691C6.77127 8.819 6.57607 8.34557 6.57603 7.8521C6.57562 7.60841 6.62339 7.36706 6.71658 7.1419C6.80976 6.91674 6.94653 6.71222 7.11903 6.5401L7.21904 6.4401C7.32457 6.33362 7.38416 6.19002 7.38504 6.0401C7.3847 5.89008 7.32503 5.74628 7.21904 5.6401L6.17904 4.6001C6.07286 4.49411 5.92906 4.43443 5.77904 4.4341L5.77003 4.4221Z" fill="#CEAB8C"/>
</svg>
