<svg width="15" height="12" viewBox="0 0 15 12" fill="none" xmlns="http://www.w3.org/2000/svg">
<path d="M1.41309 3.89402C1.59909 4.02735 2.16042 4.41736 3.09709 5.06402C4.03375 5.71069 4.75109 6.21069 5.24909 6.56402L5.60009 6.80902C5.77809 6.93769 5.92609 7.04169 6.04409 7.12102C6.16209 7.20035 6.30442 7.28936 6.47109 7.38802C6.62017 7.47842 6.77838 7.55283 6.94309 7.61002C7.0752 7.65668 7.214 7.68166 7.35409 7.68402H7.37109C7.51118 7.68166 7.64997 7.65668 7.78209 7.61002C7.94679 7.55282 8.105 7.47841 8.25409 7.38802C8.42076 7.28936 8.56309 7.20035 8.68109 7.12102C8.79909 7.04169 8.94709 6.93769 9.12509 6.80902C9.30309 6.68035 9.41942 6.59669 9.47409 6.55802L13.3181 3.88802C13.7105 3.61545 14.0494 3.2731 14.3181 2.87802C14.5753 2.51545 14.715 2.08258 14.7181 1.63802C14.7139 1.2906 14.5734 0.958722 14.3269 0.713882C14.0804 0.469042 13.7475 0.330831 13.4001 0.329021H1.31409C1.12974 0.318593 0.945541 0.35183 0.776466 0.426028C0.607391 0.500227 0.45822 0.613293 0.341088 0.756023C0.106857 1.06163 -0.0137059 1.43922 8.84313e-05 1.82402C0.0260713 2.23662 0.184605 2.6298 0.452088 2.94502C0.717433 3.31258 1.04222 3.63331 1.41309 3.89402Z" fill="#CEAB8C"/>
<path d="M13.9001 4.7731C12.1041 5.98844 10.7408 6.9331 9.81009 7.6071C9.49809 7.8371 9.24475 8.01644 9.05009 8.14511C8.80419 8.30021 8.5444 8.43211 8.27409 8.53911C7.99012 8.6642 7.6843 8.73215 7.37408 8.73911H7.35108C7.04087 8.73213 6.73506 8.66417 6.45108 8.53911C6.18077 8.43209 5.92099 8.3002 5.67508 8.14511C5.48042 8.01644 5.22708 7.8371 4.91508 7.6071C4.17175 7.06443 2.81008 6.11977 0.830085 4.7731C0.524399 4.57069 0.245522 4.33046 8.45581e-05 4.05811V10.5801C-0.00239674 10.753 0.0305749 10.9245 0.0969642 11.0841C0.163354 11.2437 0.261752 11.388 0.386085 11.5081C0.506185 11.6324 0.650494 11.7308 0.810103 11.7972C0.969713 11.8636 1.14124 11.8966 1.31408 11.8941H13.4051C13.7533 11.893 14.0869 11.7543 14.3331 11.5081C14.5793 11.2619 14.718 10.9283 14.7191 10.5801V4.05811C14.4758 4.32845 14.2008 4.56851 13.9001 4.7731Z" fill="#CEAB8C"/>
</svg>
