<svg width="15" height="14" viewBox="0 0 15 14" fill="none" xmlns="http://www.w3.org/2000/svg">
<path d="M14.918 10.8571C14.8787 10.7384 14.6277 10.5634 14.165 10.3321C14.0397 10.2594 13.8613 10.1594 13.63 10.0321C13.3987 9.90474 13.189 9.78908 13.001 9.68508C12.8123 9.57908 12.6357 9.47674 12.471 9.37808C12.4443 9.35808 12.3617 9.30008 12.223 9.20408C12.1111 9.1245 11.9934 9.0533 11.871 8.99108C11.7831 8.94693 11.6863 8.92334 11.588 8.92208C11.3929 8.95302 11.2154 9.05311 11.088 9.20408C10.8892 9.39321 10.7069 9.59895 10.543 9.81908C10.3821 10.0353 10.2067 10.2405 10.018 10.4331C9.9058 10.5801 9.74354 10.6808 9.56201 10.7161C9.48543 10.7125 9.41001 10.696 9.33901 10.6671C9.25001 10.6341 9.18201 10.6061 9.13901 10.5831C9.09601 10.5601 9.01401 10.5141 8.90101 10.4441C8.78801 10.3741 8.72601 10.3371 8.71301 10.3301C7.8595 9.86719 7.0749 9.28725 6.38201 8.60708C5.70193 7.91484 5.12198 7.13092 4.65901 6.27808C4.65234 6.26474 4.61434 6.20208 4.54501 6.09008C4.47567 5.97808 4.42934 5.89874 4.40601 5.85208C4.37466 5.78687 4.34662 5.72011 4.32201 5.65208C4.29271 5.58115 4.2758 5.50572 4.27201 5.42908C4.30731 5.24755 4.40801 5.08529 4.55501 4.97308C4.74777 4.783 4.95325 4.60626 5.17001 4.44408C5.3891 4.2801 5.59383 4.09777 5.78201 3.89908C5.93297 3.77166 6.03306 3.59419 6.06401 3.39908C6.06266 3.30106 6.03907 3.20464 5.99501 3.11708C5.93266 2.99631 5.86147 2.88033 5.78201 2.77008C5.68601 2.63141 5.62801 2.54874 5.60801 2.52208C5.50867 2.35674 5.40634 2.18008 5.30101 1.99208C5.19567 1.80408 5.08001 1.59441 4.95401 1.36308C4.82867 1.13174 4.72867 0.953409 4.65401 0.828076C4.42667 0.364743 4.25334 0.113409 4.13401 0.074076C4.06722 0.0509209 3.99662 0.0407384 3.92601 0.044076C3.68974 0.0519777 3.45503 0.0855075 3.22601 0.144076C2.99385 0.19275 2.76659 0.262368 2.54701 0.352076C2.08116 0.637247 1.71452 1.05906 1.49701 1.56008C1.17602 2.12239 1.00231 2.75668 0.992006 3.40408C0.991843 3.578 1.00354 3.75174 1.02701 3.92408C1.05532 4.11668 1.09675 4.30712 1.15101 4.49408C1.21034 4.70541 1.25834 4.86241 1.29501 4.96508C1.33167 5.06774 1.39834 5.25108 1.49501 5.51508C1.59434 5.78174 1.65367 5.94374 1.67301 6.00108C1.88452 6.60717 2.16043 7.18883 2.49601 7.73608C3.10476 8.68934 3.82151 9.56916 4.63201 10.3581C5.42092 11.1686 6.30074 11.8853 7.25401 12.4941C7.8013 12.8296 8.38295 13.1055 8.98901 13.3171C9.04834 13.3371 9.21034 13.3964 9.47501 13.4951C9.73967 13.5937 9.92301 13.6604 10.025 13.6951C10.1277 13.7317 10.2847 13.7797 10.496 13.8391C10.683 13.8932 10.8734 13.9347 11.066 13.9631C11.8845 14.0762 12.7173 13.9102 13.43 13.4921C13.9316 13.2755 14.3541 12.9096 14.64 12.4441C14.7298 12.2245 14.7995 11.9973 14.848 11.7651C14.9066 11.5361 14.9402 11.3013 14.948 11.0651C14.9514 10.9945 14.9412 10.9239 14.918 10.8571Z" fill="#CEAB8C"/>
</svg>
