<svg width="13" height="22" viewBox="0 0 13 22" fill="none" xmlns="http://www.w3.org/2000/svg">
<path d="M11.794 10.756L2.18605 1.147C2.1254 1.08179 2.05196 1.02979 1.97033 0.994223C1.88869 0.958661 1.80059 0.940308 1.71154 0.940308C1.6225 0.940308 1.5344 0.958661 1.45276 0.994223C1.37112 1.02979 1.29769 1.08179 1.23705 1.147L0.211044 2.178C0.14597 2.23872 0.0940823 2.31218 0.0586052 2.39381C0.0231281 2.47544 0.00482178 2.56349 0.00482178 2.6525C0.00482178 2.7415 0.0231281 2.82956 0.0586052 2.91119C0.0940823 2.99282 0.14597 3.06628 0.211044 3.127L8.31104 11.227L0.211044 19.327C0.14597 19.3877 0.0940823 19.4612 0.0586052 19.5428C0.0231281 19.6244 0.00482178 19.7125 0.00482178 19.8015C0.00482178 19.8905 0.0231281 19.9786 0.0586052 20.0602C0.0940823 20.1418 0.14597 20.2153 0.211044 20.276L1.24205 21.307C1.30277 21.3721 1.37623 21.424 1.45786 21.4594C1.53949 21.4949 1.62754 21.5132 1.71655 21.5132C1.80555 21.5132 1.89361 21.4949 1.97523 21.4594C2.05686 21.424 2.13032 21.3721 2.19105 21.307L11.799 11.699C11.864 11.6382 11.9158 11.5647 11.9511 11.4831C11.9865 11.4015 12.0048 11.3135 12.0048 11.2245C12.0048 11.1355 11.9865 11.0475 11.9511 10.9659C11.9158 10.8843 11.864 10.8108 11.799 10.75L11.794 10.756Z" fill="black"/>
</svg>
